<?xml version="1.0" standalone="no"?>
<!DOCTYPE svg PUBLIC "-//W3C//DTD SVG 20010904//EN"
 "http://www.w3.org/TR/2001/REC-SVG-20010904/DTD/svg10.dtd">
<svg version="1.0" xmlns="http://www.w3.org/2000/svg"
 width="600.000000pt" height="600.000000pt" viewBox="0 0 600.000000 600.000000"
 preserveAspectRatio="xMidYMid meet">
<metadata>
Created by potrace 1.14, written by Peter Selinger 2001-2017
</metadata>
<g transform="translate(0.000000,600.000000) scale(0.100000,-0.100000)"
fill="#000000" stroke="none">
<path d="M0 3000 l0 -3000 3000 0 3000 0 0 3000 0 3000 -3000 0 -3000 0 0
-3000z m1038 1173 l-3 -88 -76 -6 c-130 -11 -205 -45 -234 -106 -20 -41 -17
-134 10 -373 33 -301 36 -334 24 -395 -13 -72 -27 -100 -71 -142 -35 -34 -109
-72 -143 -74 -11 0 5 -9 35 -20 110 -39 160 -95 180 -200 11 -55 8 -93 -26
-409 -8 -74 -17 -182 -20 -240 -6 -99 -5 -107 17 -139 35 -51 104 -81 215 -94
l94 -11 0 -84 0 -85 -102 6 c-208 13 -358 88 -410 204 -36 82 -35 146 9 523
21 182 21 286 0 326 -40 77 -123 113 -279 121 l-98 6 0 87 0 87 85 7 c149 12
246 47 282 103 36 55 35 101 -12 543 -19 182 -19 223 1 291 37 126 141 199
333 233 42 8 102 15 134 15 l58 1 -3 -87z m4192 56 c192 -53 281 -155 280
-323 0 -34 -10 -142 -21 -241 -11 -99 -22 -234 -26 -300 -5 -110 -4 -124 16
-163 38 -74 127 -113 290 -128 l81 -7 0 -88 0 -89 -67 0 c-83 0 -185 -23 -231
-52 -19 -11 -47 -39 -63 -61 -27 -37 -29 -47 -29 -126 0 -48 6 -138 14 -201
47 -380 45 -479 -11 -569 -59 -94 -203 -156 -389 -168 l-104 -6 0 85 0 85 73
7 c147 14 233 60 255 138 10 38 10 46 -25 353 -9 88 -18 224 -18 302 l0 141
30 44 c34 48 109 94 168 104 42 7 60 24 27 24 -39 0 -148 59 -176 95 -68 89
-68 129 -15 639 25 240 16 273 -83 320 -40 19 -81 29 -143 34 l-88 7 -3 89 -3
89 93 -7 c52 -3 127 -15 168 -27z m-1088 -364 c78 -27 163 -77 228 -133 l35
-31 -72 -72 -71 -72 -44 35 c-132 107 -323 144 -484 94 -167 -52 -287 -212
-336 -445 -16 -76 -21 -134 -21 -281 0 -318 49 -498 167 -615 84 -83 169 -114
317 -115 90 0 197 22 282 59 l47 20 0 276 0 275 -175 0 c-199 0 -174 -13 -195
104 -18 107 -53 97 298 94 l307 -3 3 -433 2 -433 -86 -40 c-172 -79 -338 -119
-501 -119 -391 0 -633 236 -704 690 -17 109 -18 373 -1 470 62 355 255 595
552 687 68 21 90 23 225 19 131 -3 160 -7 227 -31z m-1358 -32 c-4 -21 -10
-63 -13 -93 l-6 -55 -387 -3 -388 -2 0 -300 0 -300 335 0 335 0 0 -95 0 -95
-335 0 -335 0 0 -320 0 -320 410 0 410 0 0 -95 0 -95 -525 0 -525 0 0 905 0
905 515 0 516 0 -7 -37z"/>
</g>
</svg>
